<svg id="Layer_1" data-name="Layer 1" xmlns="http://www.w3.org/2000/svg" viewBox="0 0 807.46 120.62"><defs><style>.cls-1{fill:#fff;}</style></defs><path class="cls-1" d="M187.81,38h20.68c14.5,0,24.44,8.44,24.44,21.87S223,81.75,208.49,81.75H187.81ZM208,71.87c7.44,0,12.44-4.43,12.44-12s-5-12-12.44-12h-7.81v24Z"/><path class="cls-1" d="M274.56,72.19v9.56H239.43V38h34.32v9.56H251.68v7.38h19.44v9.25H251.68v8Z"/><path class="cls-1" d="M325.19,38,306.44,81.75H294.25L275.56,38h13.38l11.87,28.5L312.94,38Z"/><path class="cls-1" d="M362.88,72.19v9.56H327.75V38h34.32v9.56H340v7.38h19.44v9.25H340v8Z"/><path class="cls-1" d="M369.76,38h12.37V71.94H403v9.81H369.76Z"/><path class="cls-1" d="M405,59.87c0-13.12,10.31-22.75,24.31-22.75s24.31,9.63,24.31,22.75-10.31,22.75-24.31,22.75S405,73,405,59.87Zm36.12,0c0-7.56-5.19-12.5-11.81-12.5s-11.81,4.94-11.81,12.5,5.18,12.5,11.81,12.5S441.07,67.44,441.07,59.87Z"/><path class="cls-1" d="M499.51,54.19c0,9.93-7.5,16.12-19.43,16.12h-7.63V81.75H460.08V38h20C492,38,499.51,44.19,499.51,54.19Zm-12.5,0c0-4.07-2.56-6.44-7.68-6.44h-6.88V60.56h6.88C484.45,60.56,487,58.19,487,54.19Z"/><path class="cls-1" d="M540.64,72.19v9.56H505.52V38h34.31v9.56H517.77v7.38H537.2v9.25H517.77v8Z"/><path class="cls-1" d="M566.64,70.12h-6.75V81.75H547.52V38h20C579.46,38,587,44.19,587,54.19A14.53,14.53,0,0,1,578.39,68l9.44,13.75H574.58Zm.13-22.37h-6.88V60.56h6.88c5.12,0,7.69-2.37,7.69-6.37S571.89,47.75,566.77,47.75Z"/><path class="cls-1" d="M592.6,77.12l2.81-6.31a24.28,24.28,0,0,0,14.44,4.81c6.81,0,9.69-2.43,9.69-5.68,0-9.44-26-3.25-26-19.5,0-7.07,5.62-13.07,17.62-13.07,5.25,0,10.75,1.38,14.57,3.88l-2.57,6.31a24.32,24.32,0,0,0-12.06-3.44c-6.75,0-9.5,2.63-9.5,5.94,0,9.31,25.94,3.25,25.94,19.31,0,7-5.69,13-17.69,13C603,82.37,596.23,80.25,592.6,77.12Z"/><path class="cls-1" d="M632.48,59.87c0-12.93,10-22.5,23.56-22.5s23.56,9.5,23.56,22.5-10,22.5-23.56,22.5S632.48,72.81,632.48,59.87Zm38.94,0a15.38,15.38,0,0,0-30.75,0,15.38,15.38,0,1,0,30.75,0Z"/><path class="cls-1" d="M687.86,62.69V38H696V62.37c0,9,4.06,12.88,11.13,12.88s11.06-3.88,11.06-12.88V38h8V62.69c0,12.75-7.19,19.68-19.13,19.68S687.86,75.44,687.86,62.69Z"/><path class="cls-1" d="M737.55,38h8.12V74.87h22.88v6.88h-31Z"/><path class="cls-1" d="M771,77.12l2.81-6.31a24.25,24.25,0,0,0,14.44,4.81c6.81,0,9.69-2.43,9.69-5.68,0-9.44-26-3.25-26-19.5,0-7.07,5.62-13.07,17.62-13.07,5.25,0,10.75,1.38,14.56,3.88l-2.56,6.31a24.35,24.35,0,0,0-12.06-3.44c-6.75,0-9.5,2.63-9.5,5.94,0,9.31,25.94,3.25,25.94,19.31,0,7-5.69,13-17.69,13C781.43,82.37,774.61,80.25,771,77.12Z"/><path class="cls-1" d="M39.33,19.1,15.92,60.32l23.66,41.59H51.49l6.84,12.46H32.57l-31-54.12,31-53.74a.53.53,0,0,1,.45-.27H74.65L67.23,19.1Z"/><path class="cls-1" d="M159.17,60.32l-30.86,54.05H86l6.6-11.43h29l23.15-42.62L120.33,18.84H108.54l-7.06-12.6h26.78a.55.55,0,0,1,.47.27Z"/><polygon class="cls-1" points="95.45 22.62 73.7 113.15 65.06 98 86.43 6.96 95.45 22.62"/><polygon class="cls-1" points="61.96 28.36 46.79 28.36 28.79 60.31 46.53 92.65 61.96 92.65 43.44 60.5 61.96 28.36"/><polygon class="cls-1" points="98.74 28.36 113.91 28.36 131.91 60.31 114.17 92.65 98.74 92.65 117.26 60.5 98.74 28.36"/></svg>